# Blender v3.0.1 OBJ File: 'TAnkAlfa.blend'
# www.blender.org
mtllib TankEsteiraDir.mtl
o Esteira_DIr_Cube.002
v 0.983558 0.025834 1.809584
v 0.983558 0.786317 2.081021
v 0.983558 0.025511 -1.482717
v 0.983558 1.000000 -1.853524
v 1.563015 0.025834 1.809584
v 1.563015 0.786317 2.081021
v 1.563015 0.025511 -1.482717
v 1.563015 1.000000 -1.853524
v 0.983558 0.000000 -0.292255
v 0.983558 1.124717 -0.740939
v 1.563015 0.000000 -0.292255
v 1.563015 1.124717 -0.740939
v 0.983558 1.067047 -1.746711
v 1.563015 0.000000 -1.413208
v 0.983558 0.000000 -1.413208
v 1.563015 1.067047 -1.746711
v 0.983558 0.000000 1.725133
v 1.563015 0.859874 1.997423
v 0.983558 0.859874 1.997423
v 1.563015 0.000000 1.725133
v 0.983558 0.669933 2.109995
v 0.983558 0.922187 -1.886162
v 1.563015 0.922187 -1.886162
v 1.563015 0.669933 2.109995
v 1.563015 1.009898 -0.698326
v 0.983558 1.009898 -0.698326
v 1.558487 0.968547 -1.729500
v 0.979030 0.968547 -1.729500
v 0.983558 0.702616 1.965803
v 1.563015 0.702616 1.965803
v 0.983558 0.088020 -1.534343
v 1.563015 0.088020 -1.534343
v 1.563015 0.080215 1.861585
v 1.563015 0.125231 -0.340364
v 0.983558 0.125231 -0.340363
v 1.563015 0.099304 -1.413693
v 0.983558 0.099304 -1.413693
v 0.983558 0.130920 1.743860
v 1.563015 0.130920 1.743860
v 0.983558 0.080215 1.861585
v 1.563015 0.773042 2.088876
v 0.983558 0.028048 1.808143
vt 0.775791 0.643852
vt 0.768436 0.642564
vt 0.773439 0.634595
vt 0.779245 0.632159
vt 0.867538 0.441963
vt 0.867551 0.432845
vt 0.926690 0.432937
vt 0.926677 0.442055
vt 0.775646 0.010759
vt 0.770391 0.001576
vt 0.778085 0.000000
vt 0.927112 0.982563
vt 0.927270 0.997651
vt 0.927292 0.999317
vt 0.867657 1.000014
vt 0.867974 0.983488
vt 0.866906 0.895656
vt 0.926046 0.895748
vt 0.926033 0.905291
vt 0.866895 0.906216
vt 0.866893 0.905124
vt 0.927275 0.013185
vt 0.868136 0.013092
vt 0.868152 0.000166
vt 0.927292 0.000438
vt 0.926709 0.419311
vt 0.867570 0.419218
vt 0.867721 0.310362
vt 0.926861 0.310455
vt 0.867378 0.556547
vt 0.926518 0.556639
vt 0.926349 0.677762
vt 0.867210 0.677670
vt 0.755822 0.286455
vt 0.748467 0.287742
vt 0.744162 0.212715
vt 0.752729 0.209534
vt 0.795615 0.919548
vt 0.783882 0.921906
vt 0.764130 0.717592
vt 0.772697 0.720772
vt 0.759277 0.298147
vt 0.753471 0.295711
vt 0.867390 0.548546
vt 0.926529 0.548639
vt 0.798053 0.930306
vt 0.789370 0.928144
vt 0.763913 0.008400
vt 0.818733 0.182825
vt 0.818303 0.027316
vt 0.842054 0.911774
vt 0.838271 0.902990
vt 0.838702 0.747481
vt 0.840636 0.667400
vt 0.821509 0.271909
vt 0.820668 0.262907
vt 0.926146 0.913421
vt 0.867008 0.914346
vt 0.822085 0.018532
vt 0.867402 0.539786
vt 0.926541 0.539879
vt 0.841477 0.658398
vt 0.848045 0.667436
vt 0.846141 0.662249
vt 0.828071 0.028713
vt 0.826143 0.022412
vt 0.828077 0.262871
vt 0.828077 0.179235
vt 0.848040 0.901593
vt 0.848045 0.751071
vt 0.826173 0.268057
vt 0.846112 0.907894
vt 0.845947 0.907786
vt 0.769401 0.002162
vn -0.9992 0.0282 -0.0293
vn 0.0000 0.3868 -0.9222
vn 1.0000 0.0000 0.0000
vn -0.0038 0.2416 0.9704
vn -0.0022 -0.9563 0.2925
vn 0.0000 0.7508 0.6606
vn 0.0000 0.9984 -0.0572
vn 0.0000 -1.0000 0.0000
vn 0.9998 -0.0215 -0.0012
vn -1.0000 0.0000 0.0000
vn 0.9992 -0.0282 0.0293
vn 0.0000 -0.9388 -0.3445
vn 0.0000 0.8470 -0.5316
vn -0.9998 0.0215 0.0012
vn 0.0000 0.9954 0.0963
vn -1.0000 -0.0017 0.0022
vn 0.9999 0.0084 0.0146
vn 1.0000 0.0017 -0.0022
vn 0.0000 -0.3882 0.9216
vn 0.0000 -0.3886 -0.9214
vn -0.9999 -0.0084 -0.0146
vn 0.0000 -0.6368 -0.7710
vn 0.0000 -0.6911 0.7227
usemtl Teste
s off
f 28/1/1 13/2/1 4/3/1 22/4/1
f 22/5/2 4/6/2 8/7/2 23/8/2
f 30/9/3 41/10/3 24/11/3
f 24/12/4 41/13/4 6/14/4 2/15/4 21/16/4
f 17/17/5 20/18/5 5/19/5 1/20/5 42/21/5
f 18/22/6 19/23/6 2/24/6 6/25/6
f 16/26/7 13/27/7 10/28/7 12/29/7
f 15/30/8 14/31/8 11/32/8 9/33/8
f 27/34/9 16/35/9 12/36/9 25/37/9
f 29/38/10 19/39/10 10/40/10 26/41/10
f 23/42/11 8/43/11 16/35/11 27/34/11
f 3/44/12 7/45/12 14/31/12 15/30/12
f 8/7/13 4/6/13 13/27/13 16/26/13
f 26/41/14 10/40/14 13/2/14 28/1/14
f 21/46/10 2/47/10 29/38/10
f 12/29/15 10/28/15 19/23/15 18/22/15
f 9/33/8 11/32/8 20/18/8 17/17/8
f 25/37/3 12/36/3 18/48/3 30/9/3
f 34/49/3 25/37/3 30/9/3 39/50/3
f 40/51/10 21/46/10 29/38/10 38/52/10
f 35/53/16 26/41/16 28/1/16 37/54/16
f 32/55/17 23/42/17 27/34/17 36/56/17
f 38/52/10 29/38/10 26/41/10 35/53/10
f 36/56/18 27/34/18 25/37/18 34/49/18
f 33/57/19 24/12/19 21/16/19 40/58/19
f 39/50/3 30/9/3 24/11/3 33/59/3
f 31/60/20 22/5/20 23/8/20 32/61/20
f 37/54/21 28/1/21 22/4/21 31/62/21
f 15/63/10 37/54/10 31/62/10 3/64/10
f 3/44/22 31/60/22 32/61/22 7/45/22
f 20/65/3 39/50/3 5/66/3
f 5/19/23 33/57/23 40/58/23 1/20/23
f 14/67/3 36/56/3 34/49/3 11/68/3
f 17/69/10 38/52/10 35/53/10 9/70/10
f 7/71/3 32/55/3 36/56/3 14/67/3
f 9/70/10 35/53/10 37/54/10 15/63/10
f 1/72/10 40/51/10 38/52/10 42/73/10
f 11/68/3 34/49/3 39/50/3 20/65/3
f 29/38/10 2/47/10 19/39/10
f 41/10/3 30/9/3 18/48/3 6/74/3
f 42/73/10 38/52/10 17/69/10
f 5/66/3 39/50/3 33/59/3
