# Blender v3.0.1 OBJ File: 'TAnkAlfa.blend'
# www.blender.org
mtllib tankTorreta.mtl
o Canhao_Cylinder
v 0.000000 1.461184 -0.592904
v -0.023258 1.509451 -0.911502
v 0.029264 1.464063 -0.592767
v -0.045623 1.516228 -0.911180
v 0.057403 1.472589 -0.592361
v -0.066236 1.527233 -0.910656
v 0.083336 1.486435 -0.591702
v -0.084303 1.542043 -0.909951
v 0.106066 1.505068 -0.590815
v -0.099130 1.560090 -0.909092
v 0.124720 1.527773 -0.589734
v -0.110148 1.580679 -0.908112
v 0.138582 1.553677 -0.588502
v -0.116932 1.603020 -0.907049
v 0.147118 1.581784 -0.587164
v -0.119223 1.626253 -0.905943
v 0.150000 1.611014 -0.585772
v -0.116932 1.649487 -0.904837
v 0.147118 1.640245 -0.584381
v -0.110148 1.671827 -0.903774
v 0.138582 1.668352 -0.583043
v -0.099130 1.692417 -0.902794
v 0.124720 1.694256 -0.581810
v -0.084303 1.710463 -0.901935
v 0.106066 1.716961 -0.580730
v -0.066236 1.725274 -0.901230
v 0.083336 1.735594 -0.579843
v -0.045623 1.736279 -0.900706
v 0.057403 1.749440 -0.579184
v -0.023257 1.743056 -0.900383
v 0.029264 1.757966 -0.578778
v 0.000002 1.745344 -0.900275
v -0.000000 1.760845 -0.578641
v 0.023262 1.743056 -0.900383
v -0.029264 1.757966 -0.578778
v 0.045628 1.736279 -0.900706
v -0.057403 1.749440 -0.579184
v 0.066240 1.725274 -0.901230
v -0.083336 1.735594 -0.579843
v 0.084308 1.710463 -0.901935
v -0.106066 1.716961 -0.580730
v 0.099135 1.692417 -0.902794
v -0.124720 1.694256 -0.581810
v 0.110152 1.671827 -0.903774
v -0.138582 1.668352 -0.583043
v 0.116937 1.649487 -0.904837
v -0.147118 1.640245 -0.584381
v 0.119228 1.626253 -0.905943
v -0.150000 1.611014 -0.585772
v 0.116937 1.603020 -0.907049
v -0.147118 1.581784 -0.587164
v 0.110152 1.580679 -0.908112
v -0.138582 1.553677 -0.588502
v 0.099135 1.560090 -0.909092
v -0.124720 1.527773 -0.589734
v 0.084308 1.542043 -0.909951
v -0.106066 1.505068 -0.590815
v 0.066240 1.527233 -0.910656
v -0.083336 1.486435 -0.591702
v 0.045628 1.516228 -0.911180
v -0.057403 1.472589 -0.592361
v 0.023262 1.509451 -0.911502
v -0.029264 1.464063 -0.592767
v 0.000002 1.507162 -0.911611
v 0.029264 1.559148 -2.590505
v 0.000000 1.556269 -2.590642
v 0.057403 1.567674 -2.590100
v 0.083336 1.581520 -2.589441
v 0.106066 1.600153 -2.588554
v 0.124720 1.622858 -2.587473
v 0.138582 1.648761 -2.586240
v 0.147118 1.676869 -2.584902
v 0.150000 1.706099 -2.583511
v 0.147118 1.735329 -2.582120
v 0.138582 1.763437 -2.580782
v 0.124720 1.789340 -2.579549
v 0.106066 1.812045 -2.578468
v 0.083336 1.830678 -2.577582
v 0.057403 1.844524 -2.576923
v 0.029264 1.853050 -2.576517
v -0.000000 1.855929 -2.576380
v -0.029264 1.853050 -2.576517
v -0.057403 1.844524 -2.576923
v -0.083336 1.830678 -2.577582
v -0.106066 1.812045 -2.578468
v -0.124720 1.789340 -2.579549
v -0.138582 1.763437 -2.580782
v -0.147118 1.735329 -2.582120
v -0.150000 1.706099 -2.583511
v -0.147118 1.676868 -2.584902
v -0.138582 1.648761 -2.586240
v -0.124720 1.622858 -2.587473
v -0.106066 1.600153 -2.588554
v -0.083336 1.581520 -2.589441
v -0.057403 1.567674 -2.590100
v -0.029264 1.559147 -2.590505
v 0.029264 1.559148 -2.590505
v 0.000000 1.556269 -2.590642
v 0.057403 1.567674 -2.590100
v 0.083336 1.581520 -2.589441
v 0.106066 1.600153 -2.588554
v 0.124720 1.622858 -2.587473
v 0.138582 1.648761 -2.586240
v 0.147118 1.676869 -2.584902
v 0.150000 1.706099 -2.583511
v 0.147118 1.735329 -2.582120
v 0.138582 1.763437 -2.580782
v 0.124720 1.789340 -2.579549
v 0.106066 1.812045 -2.578468
v 0.083336 1.830678 -2.577582
v 0.057403 1.844524 -2.576923
v 0.029264 1.853050 -2.576517
v -0.000000 1.855929 -2.576380
v -0.029264 1.853050 -2.576517
v -0.057403 1.844524 -2.576923
v -0.083336 1.830678 -2.577582
v -0.106066 1.812045 -2.578468
v -0.124720 1.789340 -2.579549
v -0.138582 1.763437 -2.580782
v -0.147118 1.735329 -2.582120
v -0.150000 1.706099 -2.583511
v -0.147118 1.676868 -2.584902
v -0.138582 1.648761 -2.586240
v -0.124720 1.622858 -2.587473
v -0.106066 1.600153 -2.588554
v -0.083336 1.581520 -2.589441
v -0.057403 1.567674 -2.590100
v -0.029264 1.559147 -2.590505
v 0.000000 1.556269 -2.590642
v 0.000000 1.587008 -2.589179
v 0.023260 1.589296 -2.589071
v 0.029264 1.559148 -2.590505
v 0.045626 1.596073 -2.588748
v 0.057403 1.567674 -2.590100
v 0.066238 1.607079 -2.588224
v 0.083336 1.581520 -2.589441
v 0.084305 1.621889 -2.587519
v 0.106066 1.600153 -2.588554
v 0.099132 1.639936 -2.586660
v 0.124720 1.622858 -2.587473
v 0.110150 1.660525 -2.585680
v 0.138582 1.648761 -2.586240
v 0.116935 1.682866 -2.584617
v 0.147118 1.676869 -2.584902
v 0.119226 1.706099 -2.583511
v 0.150000 1.706099 -2.583511
v 0.116935 1.729332 -2.582405
v 0.147118 1.735329 -2.582120
v 0.110150 1.751673 -2.581342
v 0.138582 1.763437 -2.580782
v 0.099133 1.772262 -2.580362
v 0.124720 1.789340 -2.579549
v 0.084305 1.790309 -2.579503
v 0.106066 1.812045 -2.578468
v 0.066238 1.805119 -2.578798
v 0.083336 1.830678 -2.577582
v 0.045626 1.816125 -2.578274
v 0.057403 1.844524 -2.576923
v 0.023260 1.822901 -2.577952
v 0.029264 1.853050 -2.576517
v -0.000000 1.825190 -2.577843
v -0.000000 1.855929 -2.576380
v -0.023260 1.822901 -2.577952
v -0.029264 1.853050 -2.576517
v -0.045626 1.816125 -2.578274
v -0.057403 1.844524 -2.576923
v -0.066238 1.805119 -2.578798
v -0.083336 1.830678 -2.577582
v -0.084305 1.790309 -2.579503
v -0.106066 1.812045 -2.578468
v -0.099132 1.772262 -2.580362
v -0.124720 1.789340 -2.579549
v -0.110150 1.751673 -2.581342
v -0.138582 1.763437 -2.580782
v -0.116935 1.729332 -2.582405
v -0.147118 1.735329 -2.582120
v -0.119226 1.706099 -2.583511
v -0.150000 1.706099 -2.583511
v -0.116935 1.682866 -2.584617
v -0.147118 1.676868 -2.584902
v -0.110150 1.660525 -2.585680
v -0.138582 1.648761 -2.586240
v -0.099133 1.639936 -2.586660
v -0.124720 1.622858 -2.587473
v -0.084305 1.621889 -2.587519
v -0.106066 1.600153 -2.588554
v -0.066238 1.607079 -2.588224
v -0.083336 1.581520 -2.589441
v -0.045626 1.596073 -2.588748
v -0.057403 1.567674 -2.590100
v -0.023260 1.589296 -2.589071
v -0.029264 1.559147 -2.590505
vt 0.416302 0.698851
vt 0.521706 0.698851
vt 0.521706 0.705438
vt 0.416302 0.705438
vt 0.521706 0.712026
vt 0.416302 0.712026
vt 0.521706 0.718614
vt 0.416302 0.718614
vt 0.521706 0.725202
vt 0.416302 0.725202
vt 0.521706 0.731790
vt 0.416302 0.731790
vt 0.521706 0.738377
vt 0.416302 0.738377
vt 0.521706 0.744965
vt 0.416302 0.744965
vt 0.521706 0.751553
vt 0.416302 0.751553
vt 0.521706 0.758141
vt 0.416302 0.758141
vt 0.521706 0.764728
vt 0.416302 0.764728
vt 0.521706 0.771316
vt 0.416302 0.771316
vt 0.521706 0.777904
vt 0.416302 0.777904
vt 0.521706 0.784492
vt 0.416302 0.784492
vt 0.521706 0.791080
vt 0.416302 0.791080
vt 0.521706 0.797667
vt 0.416302 0.797667
vt 0.521706 0.804255
vt 0.416302 0.804255
vt 0.521706 0.810843
vt 0.416302 0.810843
vt 0.521706 0.817431
vt 0.416302 0.817431
vt 0.521706 0.824018
vt 0.416302 0.824018
vt 0.521706 0.830606
vt 0.416302 0.830606
vt 0.521706 0.837194
vt 0.416302 0.837194
vt 0.521706 0.843782
vt 0.416302 0.843782
vt 0.521706 0.850370
vt 0.416302 0.850370
vt 0.521706 0.856957
vt 0.416302 0.856957
vt 0.521706 0.863545
vt 0.416302 0.863545
vt 0.521706 0.870133
vt 0.416302 0.870133
vt 0.521706 0.876721
vt 0.416302 0.876721
vt 0.521706 0.883308
vt 0.416302 0.883308
vt 0.521706 0.889896
vt 0.416302 0.889896
vt 0.521706 0.896484
vt 0.416302 0.896484
vt 0.213886 0.758560
vt 0.211951 0.748833
vt 0.211951 0.748833
vt 0.213886 0.758560
vt 0.521706 0.903072
vt 0.416302 0.903072
vt 0.521706 0.909660
vt 0.416302 0.909660
vt 0.113185 0.758560
vt 0.111250 0.748833
vt 0.107455 0.739669
vt 0.101944 0.731423
vt 0.094931 0.724410
vt 0.086684 0.718899
vt 0.077521 0.715104
vt 0.067794 0.713169
vt 0.057875 0.713169
vt 0.048148 0.715104
vt 0.038985 0.718899
vt 0.030738 0.724410
vt 0.023725 0.731423
vt 0.018215 0.739670
vt 0.014419 0.748833
vt 0.012484 0.758560
vt 0.012484 0.768479
vt 0.014419 0.778206
vt 0.018215 0.787369
vt 0.023725 0.795616
vt 0.030738 0.802629
vt 0.038985 0.808139
vt 0.048148 0.811935
vt 0.057876 0.813870
vt 0.067794 0.813870
vt 0.077521 0.811935
vt 0.086685 0.808139
vt 0.094931 0.802629
vt 0.101945 0.795616
vt 0.107455 0.787369
vt 0.111250 0.778206
vt 0.113185 0.768478
vt 0.208156 0.739669
vt 0.208156 0.739669
vt 0.211951 0.748833
vt 0.202645 0.731423
vt 0.202645 0.731423
vt 0.195632 0.724410
vt 0.195632 0.724410
vt 0.187386 0.718899
vt 0.187386 0.718899
vt 0.178222 0.715104
vt 0.178222 0.715104
vt 0.168495 0.713169
vt 0.168495 0.713169
vt 0.158577 0.713169
vt 0.158577 0.713169
vt 0.148849 0.715104
vt 0.148849 0.715104
vt 0.139686 0.718899
vt 0.139686 0.718899
vt 0.131439 0.724410
vt 0.131439 0.724410
vt 0.124426 0.731423
vt 0.124426 0.731423
vt 0.118916 0.739669
vt 0.118916 0.739669
vt 0.115120 0.748833
vt 0.115120 0.748833
vt 0.113185 0.758560
vt 0.113185 0.758560
vt 0.113185 0.768478
vt 0.113185 0.768478
vt 0.115120 0.778206
vt 0.115120 0.778206
vt 0.118916 0.787369
vt 0.118916 0.787369
vt 0.124426 0.795616
vt 0.124426 0.795616
vt 0.131439 0.802629
vt 0.131439 0.802629
vt 0.139686 0.808139
vt 0.139686 0.808139
vt 0.148849 0.811935
vt 0.148849 0.811935
vt 0.158576 0.813870
vt 0.158576 0.813870
vt 0.168495 0.813870
vt 0.168495 0.813870
vt 0.178222 0.811935
vt 0.178222 0.811935
vt 0.187385 0.808139
vt 0.187385 0.808139
vt 0.195632 0.802629
vt 0.195632 0.802629
vt 0.202645 0.795616
vt 0.202645 0.795616
vt 0.208156 0.787369
vt 0.208156 0.787369
vt 0.211951 0.778206
vt 0.211951 0.778206
vt 0.213886 0.768479
vt 0.213886 0.768479
vt 0.213886 0.758560
vt 0.151862 0.725037
vt 0.159594 0.723499
vt 0.159594 0.723499
vt 0.151862 0.725037
vt 0.202645 0.731423
vt 0.195632 0.724410
vt 0.187386 0.718899
vt 0.178222 0.715104
vt 0.168495 0.713169
vt 0.158577 0.713169
vt 0.148849 0.715104
vt 0.139686 0.718899
vt 0.131439 0.724410
vt 0.124426 0.731423
vt 0.118916 0.739669
vt 0.115120 0.748833
vt 0.113185 0.758560
vt 0.113185 0.768478
vt 0.115120 0.778206
vt 0.118916 0.787369
vt 0.124426 0.795616
vt 0.131439 0.802629
vt 0.139686 0.808139
vt 0.148849 0.811935
vt 0.158576 0.813870
vt 0.168495 0.813870
vt 0.178222 0.811935
vt 0.187385 0.808139
vt 0.195632 0.802629
vt 0.202645 0.795616
vt 0.208156 0.787369
vt 0.211951 0.778206
vt 0.213886 0.768479
vt 0.199001 0.744563
vt 0.202018 0.751846
vt 0.203556 0.759578
vt 0.203556 0.767461
vt 0.202018 0.775193
vt 0.199001 0.782476
vt 0.194622 0.789031
vt 0.189047 0.794605
vt 0.182492 0.798985
vt 0.175209 0.802002
vt 0.167477 0.803540
vt 0.159594 0.803540
vt 0.151862 0.802002
vt 0.144579 0.798985
vt 0.138024 0.794605
vt 0.132450 0.789031
vt 0.128070 0.782476
vt 0.125053 0.775193
vt 0.123515 0.767461
vt 0.123515 0.759578
vt 0.125053 0.751846
vt 0.128070 0.744563
vt 0.132450 0.738008
vt 0.138024 0.732433
vt 0.144579 0.728054
vt 0.167477 0.723499
vt 0.175209 0.725037
vt 0.182492 0.728054
vt 0.189047 0.732433
vt 0.194622 0.738008
vt 0.208156 0.739669
vt 0.202018 0.751846
vt 0.199001 0.744563
vt 0.194622 0.738008
vt 0.189047 0.732433
vt 0.182492 0.728054
vt 0.175209 0.725037
vt 0.167477 0.723499
vt 0.144579 0.728054
vt 0.138024 0.732433
vt 0.132450 0.738008
vt 0.128070 0.744563
vt 0.125053 0.751846
vt 0.123515 0.759578
vt 0.123515 0.767461
vt 0.125053 0.775193
vt 0.128070 0.782476
vt 0.132450 0.789031
vt 0.138024 0.794605
vt 0.144579 0.798985
vt 0.151862 0.802002
vt 0.159594 0.803540
vt 0.167477 0.803540
vt 0.175209 0.802002
vt 0.182492 0.798985
vt 0.189047 0.794605
vt 0.194622 0.789031
vt 0.199001 0.782476
vt 0.202018 0.775193
vt 0.203556 0.767461
vt 0.203556 0.759578
vn 0.0980 -0.9941 -0.0473
vn 0.2903 -0.9559 -0.0455
vn 0.4714 -0.8809 -0.0419
vn 0.6344 -0.7721 -0.0368
vn 0.7730 -0.6337 -0.0302
vn 0.8819 -0.4709 -0.0224
vn 0.9569 -0.2900 -0.0138
vn 0.9952 -0.0979 -0.0047
vn 0.9952 0.0979 0.0047
vn 0.9569 0.2900 0.0138
vn 0.8819 0.4709 0.0224
vn 0.7730 0.6337 0.0302
vn 0.6344 0.7721 0.0368
vn 0.4714 0.8809 0.0419
vn 0.2903 0.9559 0.0455
vn 0.0980 0.9941 0.0473
vn -0.0980 0.9941 0.0473
vn -0.2903 0.9559 0.0455
vn -0.4714 0.8809 0.0419
vn -0.6344 0.7721 0.0368
vn -0.7730 0.6337 0.0302
vn -0.8819 0.4709 0.0224
vn -0.9569 0.2900 0.0138
vn -0.9952 0.0979 0.0047
vn -0.9952 -0.0979 -0.0047
vn -0.9569 -0.2900 -0.0138
vn -0.8819 -0.4709 -0.0224
vn -0.7730 -0.6337 -0.0302
vn -0.6344 -0.7721 -0.0368
vn -0.4714 -0.8809 -0.0419
vn 0.0000 0.0000 1.0000
vn -0.2903 -0.9559 -0.0455
vn -0.0980 -0.9941 -0.0473
vn -0.0000 -0.0475 0.9989
vn 0.0000 0.0475 -0.9989
vn -0.6344 -0.7721 -0.0367
vn 0.6344 0.7721 0.0367
usemtl Teste
s off
f 1/1/1 66/2/1 65/3/1 3/4/1
f 3/4/2 65/3/2 67/5/2 5/6/2
f 5/6/3 67/5/3 68/7/3 7/8/3
f 7/8/4 68/7/4 69/9/4 9/10/4
f 9/10/5 69/9/5 70/11/5 11/12/5
f 11/12/6 70/11/6 71/13/6 13/14/6
f 13/14/7 71/13/7 72/15/7 15/16/7
f 15/16/8 72/15/8 73/17/8 17/18/8
f 17/18/9 73/17/9 74/19/9 19/20/9
f 19/20/10 74/19/10 75/21/10 21/22/10
f 21/22/11 75/21/11 76/23/11 23/24/11
f 23/24/12 76/23/12 77/25/12 25/26/12
f 25/26/13 77/25/13 78/27/13 27/28/13
f 27/28/14 78/27/14 79/29/14 29/30/14
f 29/30/15 79/29/15 80/31/15 31/32/15
f 31/32/16 80/31/16 81/33/16 33/34/16
f 33/34/17 81/33/17 82/35/17 35/36/17
f 35/36/18 82/35/18 83/37/18 37/38/18
f 37/38/19 83/37/19 84/39/19 39/40/19
f 39/40/20 84/39/20 85/41/20 41/42/20
f 41/42/21 85/41/21 86/43/21 43/44/21
f 43/44/22 86/43/22 87/45/22 45/46/22
f 45/46/23 87/45/23 88/47/23 47/48/23
f 47/48/24 88/47/24 89/49/24 49/50/24
f 49/50/25 89/49/25 90/51/25 51/52/25
f 51/52/26 90/51/26 91/53/26 53/54/26
f 53/54/27 91/53/27 92/55/27 55/56/27
f 55/56/28 92/55/28 93/57/28 57/58/28
f 57/58/29 93/57/29 94/59/29 59/60/29
f 59/60/30 94/59/30 95/61/30 61/62/30
f 192/63/31 129/64/31 98/65/31 128/66/31
f 61/62/32 95/61/32 96/67/32 63/68/32
f 63/68/33 96/67/33 66/69/33 1/70/33
f 1/71/34 3/72/34 5/73/34 7/74/34 9/75/34 11/76/34 13/77/34 15/78/34 17/79/34 19/80/34 21/81/34 23/82/34 25/83/34 27/84/34 29/85/34 31/86/34 33/87/34 35/88/34 37/89/34 39/90/34 41/91/34 43/92/34 45/93/34 47/94/34 49/95/34 51/96/34 53/97/34 55/98/34 57/99/34 59/100/34 61/101/34 63/102/34
f 98/65/31 97/103/31 65/104/31 66/105/31
f 97/103/31 99/106/31 67/107/31 65/104/31
f 99/106/31 100/108/31 68/109/31 67/107/31
f 100/108/31 101/110/31 69/111/31 68/109/31
f 101/110/31 102/112/31 70/113/31 69/111/31
f 102/112/31 103/114/31 71/115/31 70/113/31
f 103/114/31 104/116/31 72/117/31 71/115/31
f 104/116/31 105/118/31 73/119/31 72/117/31
f 105/118/31 106/120/31 74/121/31 73/119/31
f 106/120/31 107/122/31 75/123/31 74/121/31
f 107/122/31 108/124/31 76/125/31 75/123/31
f 108/124/31 109/126/31 77/127/31 76/125/31
f 109/126/31 110/128/31 78/129/31 77/127/31
f 110/128/31 111/130/31 79/131/31 78/129/31
f 111/130/31 112/132/31 80/133/31 79/131/31
f 112/132/31 113/134/31 81/135/31 80/133/31
f 113/134/31 114/136/31 82/137/31 81/135/31
f 114/136/31 115/138/31 83/139/31 82/137/31
f 115/138/31 116/140/31 84/141/31 83/139/31
f 116/140/31 117/142/31 85/143/31 84/141/31
f 117/142/31 118/144/31 86/145/31 85/143/31
f 118/144/31 119/146/31 87/147/31 86/145/31
f 119/146/31 120/148/31 88/149/31 87/147/31
f 120/148/31 121/150/31 89/151/31 88/149/31
f 121/150/31 122/152/31 90/153/31 89/151/31
f 122/152/31 123/154/31 91/155/31 90/153/31
f 123/154/31 124/156/31 92/157/31 91/155/31
f 124/156/31 125/158/31 93/159/31 92/157/31
f 125/158/31 126/160/31 94/161/31 93/159/31
f 126/160/31 127/162/31 95/163/31 94/161/31
f 127/162/31 128/66/31 96/164/31 95/163/31
f 128/66/31 98/65/31 66/105/31 96/164/31
f 145/165/24 143/166/24 50/167/24 48/168/24
f 134/169/31 136/170/31 100/108/31 99/106/31
f 136/170/31 138/171/31 101/110/31 100/108/31
f 138/171/31 140/172/31 102/112/31 101/110/31
f 140/172/31 142/173/31 103/114/31 102/112/31
f 142/173/31 144/174/31 104/116/31 103/114/31
f 144/174/31 146/175/31 105/118/31 104/116/31
f 146/175/31 148/176/31 106/120/31 105/118/31
f 148/176/31 150/177/31 107/122/31 106/120/31
f 150/177/31 152/178/31 108/124/31 107/122/31
f 152/178/31 154/179/31 109/126/31 108/124/31
f 154/179/31 156/180/31 110/128/31 109/126/31
f 156/180/31 158/181/31 111/130/31 110/128/31
f 158/181/31 160/182/31 112/132/31 111/130/31
f 160/182/31 162/183/31 113/134/31 112/132/31
f 162/183/31 164/184/31 114/136/31 113/134/31
f 164/184/31 166/185/31 115/138/31 114/136/31
f 166/185/31 168/186/31 116/140/31 115/138/31
f 168/186/31 170/187/31 117/142/31 116/140/31
f 170/187/31 172/188/31 118/144/31 117/142/31
f 172/188/31 174/189/31 119/146/31 118/144/31
f 174/189/31 176/190/31 120/148/31 119/146/31
f 176/190/31 178/191/31 121/150/31 120/148/31
f 178/191/31 180/192/31 122/152/31 121/150/31
f 180/192/31 182/193/31 123/154/31 122/152/31
f 182/193/31 184/194/31 124/156/31 123/154/31
f 184/194/31 186/195/31 125/158/31 124/156/31
f 186/195/31 188/196/31 126/160/31 125/158/31
f 188/196/31 190/197/31 127/162/31 126/160/31
f 190/197/31 192/63/31 128/66/31 127/162/31
f 62/198/35 64/199/35 2/200/35 4/201/35 6/202/35 8/203/35 10/204/35 12/205/35 14/206/35 16/207/35 18/208/35 20/209/35 22/210/35 24/211/35 26/212/35 28/213/35 30/214/35 32/215/35 34/216/35 36/217/35 38/218/35 40/219/35 42/220/35 44/221/35 46/222/35 48/168/35 50/167/35 52/223/35 54/224/35 56/225/35 58/226/35 60/227/35
f 132/228/31 134/169/31 99/106/31 97/103/31
f 132/228/35 129/64/35 130/229/35 131/230/35
f 134/169/35 132/228/35 131/230/35 133/231/35
f 136/170/35 134/169/35 133/231/35 135/232/35
f 138/171/35 136/170/35 135/232/35 137/233/35
f 140/172/35 138/171/35 137/233/35 139/234/35
f 142/173/35 140/172/35 139/234/35 141/235/35
f 144/174/35 142/173/35 141/235/35 143/166/35
f 146/175/35 144/174/35 143/166/35 145/165/35
f 148/176/35 146/175/35 145/165/35 147/236/35
f 150/177/35 148/176/35 147/236/35 149/237/35
f 152/178/35 150/177/35 149/237/35 151/238/35
f 154/179/35 152/178/35 151/238/35 153/239/35
f 156/180/35 154/179/35 153/239/35 155/240/35
f 158/181/35 156/180/35 155/240/35 157/241/35
f 160/182/35 158/181/35 157/241/35 159/242/35
f 162/183/35 160/182/35 159/242/35 161/243/35
f 164/184/35 162/183/35 161/243/35 163/244/35
f 166/185/35 164/184/35 163/244/35 165/245/35
f 168/186/35 166/185/35 165/245/35 167/246/35
f 170/187/35 168/186/35 167/246/35 169/247/35
f 172/188/35 170/187/35 169/247/35 171/248/35
f 174/189/35 172/188/35 171/248/35 173/249/35
f 176/190/35 174/189/35 173/249/35 175/250/35
f 178/191/35 176/190/35 175/250/35 177/251/35
f 180/192/35 178/191/35 177/251/35 179/252/35
f 182/193/35 180/192/35 179/252/35 181/253/35
f 184/194/35 182/193/35 181/253/35 183/254/35
f 186/195/35 184/194/35 183/254/35 185/255/35
f 188/196/35 186/195/35 185/255/35 187/256/35
f 190/197/35 188/196/35 187/256/35 189/257/35
f 192/63/35 190/197/35 189/257/35 191/258/35
f 129/64/35 192/63/35 191/258/35 130/229/35
f 129/64/31 132/228/31 97/103/31 98/65/31
f 163/244/1 161/243/1 32/215/1 30/214/1
f 181/253/10 179/252/10 14/206/10 12/205/10
f 137/233/20 135/232/20 58/226/20 56/225/20
f 155/240/36 153/239/36 40/219/36 38/218/36
f 173/249/6 171/248/6 22/210/6 20/209/6
f 191/258/15 189/257/15 4/201/15 2/200/15
f 147/236/25 145/165/25 48/168/25 46/222/25
f 165/245/2 163/244/2 30/214/2 28/213/2
f 183/254/11 181/253/11 12/205/11 10/204/11
f 130/229/16 191/258/16 2/200/16 64/199/16
f 139/234/21 137/233/21 56/225/21 54/224/21
f 157/241/30 155/240/30 38/218/30 36/217/30
f 175/250/7 173/249/7 20/209/7 18/208/7
f 131/230/17 130/229/17 64/199/17 62/198/17
f 149/237/26 147/236/26 46/222/26 44/221/26
f 167/246/3 165/245/3 28/213/3 26/212/3
f 185/255/12 183/254/12 10/204/12 8/203/12
f 141/235/22 139/234/22 54/224/22 52/223/22
f 159/242/32 157/241/32 36/217/32 34/216/32
f 177/251/8 175/250/8 18/208/8 16/207/8
f 133/231/18 131/230/18 62/198/18 60/227/18
f 151/238/27 149/237/27 44/221/27 42/220/27
f 169/247/4 167/246/4 26/212/4 24/211/4
f 187/256/37 185/255/37 8/203/37 6/202/37
f 143/166/23 141/235/23 52/223/23 50/167/23
f 161/243/33 159/242/33 34/216/33 32/215/33
f 179/252/9 177/251/9 16/207/9 14/206/9
f 135/232/19 133/231/19 60/227/19 58/226/19
f 153/239/28 151/238/28 42/220/28 40/219/28
f 171/248/5 169/247/5 24/211/5 22/210/5
f 189/257/14 187/256/14 6/202/14 4/201/14
o Torreta_Cube.001
v -0.728924 1.380521 0.892271
v -0.528891 1.918250 0.699831
v -0.728924 1.380521 -0.721330
v -0.528891 1.918250 -0.528891
v 0.728924 1.380521 0.892271
v 0.528891 1.918250 0.699831
v 0.728924 1.380521 -0.721330
v 0.528891 1.918250 -0.528891
v -0.664445 1.853743 0.835386
v -0.664445 1.853743 -0.664445
v 0.664445 1.853743 -0.664445
v 0.664445 1.853743 0.835386
v -0.800000 1.469360 -0.800000
v -0.800000 1.469360 0.970940
v 0.800000 1.469360 -0.800000
v 0.800000 1.469360 0.970940
v 0.000000 1.469360 -0.906515
v 0.000000 1.918250 -0.635406
v 0.000000 1.469360 0.970940
v 0.000000 1.918250 0.699831
v 0.000000 1.853743 0.835386
v 0.000000 1.853743 -0.770960
v 0.000000 1.380521 -0.827845
v 0.000000 1.380521 0.892271
v 0.256190 1.918250 -0.635406
v 0.387512 1.469360 0.970940
v 0.321851 1.853743 -0.770960
v 0.353084 1.380521 0.892271
v 0.387512 1.469360 -0.906515
v 0.256190 1.918250 0.699831
v 0.321851 1.853743 0.835386
v 0.353084 1.380521 -0.827845
v -0.410000 1.469360 -0.906515
v -0.271057 1.918250 0.699831
v -0.340528 1.853743 0.835386
v -0.373573 1.380521 -0.827845
v -0.271057 1.918250 -0.635406
v -0.410000 1.469360 0.970940
v -0.340528 1.853743 -0.770960
v -0.373573 1.380521 0.892271
vt 0.339613 0.015543
vt 0.372755 0.042837
vt 0.378175 0.256128
vt 0.344697 0.284258
vt 0.535873 0.308964
vt 0.519411 0.275110
vt 0.566853 0.254093
vt 0.599564 0.281349
vt 0.565828 0.040643
vt 0.599564 0.012552
vt 0.402063 0.003356
vt 0.419064 0.038291
vt 0.247002 0.047150
vt 0.307853 0.075160
vt 0.304437 0.336722
vt 0.236223 0.349701
vt 0.423647 0.276221
vt 0.787419 0.383289
vt 0.646422 0.395837
vt 0.646422 0.337331
vt 0.787419 0.312847
vt 0.140997 0.713169
vt 0.000000 0.688685
vt 0.000000 0.417784
vt 0.140997 0.393300
vt 0.599580 0.216985
vt 0.740576 0.205109
vt 0.744162 0.269811
vt 0.603088 0.293852
vt 0.281994 0.713169
vt 0.140997 0.688685
vt 0.140997 0.417784
vt 0.281994 0.393300
vt 0.051217 0.066940
vt 0.033121 0.328704
vt 0.000000 0.351907
vt 0.017032 0.041668
vt 0.111757 0.042478
vt 0.096558 0.003988
vt 0.339613 0.052862
vt 0.339613 0.362848
vt 0.250470 0.390830
vt 0.095789 0.344572
vt 0.167123 0.352163
vt 0.165735 0.393300
vt 0.078421 0.383454
vt 0.181881 0.040353
vt 0.183481 0.000000
vt 0.263782 0.010866
vt 0.599564 0.072937
vt 0.740563 0.085470
vt 0.740570 0.146976
vt 0.599573 0.146992
vt 0.787419 0.527337
vt 0.646422 0.515477
vt 0.646422 0.457344
vt 0.787419 0.457344
vt 0.472858 0.276875
vt 0.469444 0.036199
vt 0.516728 0.036698
vt 0.532165 0.001095
vt 0.468848 0.000000
vt 0.406976 0.310676
vt 0.473373 0.312847
vt 0.787419 0.601840
vt 0.646422 0.577356
vt 0.603079 0.000000
vt 0.744162 0.023987
vn -0.4297 0.9030 0.0000
vn 0.1217 0.9283 -0.3514
vn 0.4297 0.9030 0.0000
vn 0.0000 0.9030 0.4297
vn 0.0000 -1.0000 0.0000
vn 0.0000 1.0000 0.0000
vn 0.0000 0.3326 0.9431
vn 0.9431 0.3326 0.0000
vn 0.2512 0.3797 -0.8903
vn -0.9431 0.3326 0.0000
vn -0.7808 -0.6247 0.0000
vn -0.1926 -0.7133 -0.6739
vn 0.7808 -0.6247 0.0000
vn 0.0000 -0.6630 0.7487
vn 0.0000 -0.6630 -0.7487
vn 0.0000 0.3326 -0.9431
vn 0.0000 0.9030 -0.4297
vn 0.1836 -0.7105 -0.6793
vn -0.1268 0.9295 -0.3464
vn -0.2642 0.3827 -0.8853
usemtl Teste
s off
f 201/259/38 194/260/38 196/261/38 202/262/38
f 219/263/39 217/264/39 200/265/39 203/266/39
f 203/266/40 200/265/40 198/267/40 204/268/40
f 227/269/41 226/270/41 194/260/41 201/259/41
f 224/271/42 199/272/42 197/273/42 220/274/42
f 229/275/43 196/261/43 194/260/43 226/270/43
f 230/276/44 227/277/44 201/278/44 206/279/44
f 207/280/45 203/281/45 204/282/45 208/283/45
f 221/284/46 219/285/46 203/286/46 207/287/46
f 206/288/47 201/289/47 202/290/47 205/291/47
f 195/292/48 193/293/48 206/294/48 205/295/48
f 228/296/49 195/292/49 205/295/49 225/297/49
f 197/273/50 199/272/50 207/298/50 208/299/50
f 220/274/51 197/273/51 208/299/51 218/300/51
f 232/301/51 216/302/51 211/303/51 230/304/51
f 224/271/52 215/305/52 209/306/52 221/307/52
f 225/308/53 231/309/53 214/310/53 209/311/53
f 218/312/44 223/313/44 213/314/44 211/315/44
f 217/264/43 210/316/43 212/317/43 222/318/43
f 228/296/42 215/305/42 216/302/42 232/301/42
f 223/319/41 222/318/41 212/317/41 213/320/41
f 231/321/54 229/275/54 210/316/54 214/322/54
f 204/268/41 198/267/41 222/318/41 223/319/41
f 200/265/43 217/264/43 222/318/43 198/267/43
f 208/323/44 204/324/44 223/313/44 218/312/44
f 199/272/55 224/271/55 221/307/55 207/298/55
f 216/302/51 220/274/51 218/300/51 211/303/51
f 209/311/53 214/310/53 219/285/53 221/284/53
f 215/305/42 224/271/42 220/274/42 216/302/42
f 214/322/54 210/316/54 217/264/54 219/263/54
f 202/262/56 196/261/56 229/275/56 231/321/56
f 195/292/42 228/296/42 232/301/42 193/293/42
f 205/325/57 202/326/57 231/309/57 225/308/57
f 193/293/51 232/301/51 230/304/51 206/294/51
f 215/305/52 228/296/52 225/297/52 209/306/52
f 211/315/44 213/314/44 227/277/44 230/276/44
f 210/316/43 229/275/43 226/270/43 212/317/43
f 213/320/41 212/317/41 226/270/41 227/269/41
